<svg width="36" height="36" viewBox="0 0 36 36" fill="none" xmlns="http://www.w3.org/2000/svg">
<rect width="36" height="36" rx="18" fill="#FFEFB0"/>
<path d="M16.548 9.80561L8.39691 23.9226C8.24968 24.1776 8.17215 24.4668 8.17212 24.7612C8.17209 25.0556 8.24957 25.3448 8.39676 25.5997C8.54395 25.8547 8.75566 26.0664 9.01062 26.2136C9.26558 26.3608 9.5548 26.4383 9.84919 26.4383H26.15C26.4444 26.4383 26.7336 26.3608 26.9886 26.2136C27.2435 26.0664 27.4552 25.8547 27.6024 25.5997C27.7496 25.3448 27.8271 25.0556 27.8271 24.7612C27.8271 24.4668 27.7495 24.1776 27.6023 23.9226L19.4521 9.80561C19.3049 9.55073 19.0933 9.33907 18.8384 9.19191C18.5835 9.04476 18.2944 8.96729 18 8.96729C17.7057 8.96729 17.4166 9.04476 17.1617 9.19191C16.9068 9.33907 16.6951 9.55073 16.548 9.80561Z" fill="#FFB700"/>
<path d="M18.1063 14.1597H17.8936C17.3702 14.1597 16.9458 14.584 16.9458 15.1075V19.638C16.9458 20.1615 17.3702 20.5859 17.8936 20.5859H18.1063C18.6297 20.5859 19.0541 20.1615 19.0541 19.638V15.1075C19.0541 14.584 18.6297 14.1597 18.1063 14.1597Z" fill="white"/>
<path d="M18 24.1791C18.5822 24.1791 19.0541 23.7072 19.0541 23.125C19.0541 22.5428 18.5822 22.0708 18 22.0708C17.4178 22.0708 16.9458 22.5428 16.9458 23.125C16.9458 23.7072 17.4178 24.1791 18 24.1791Z" fill="white"/>
</svg>
