<svg width="17" height="13" viewBox="0 0 17 13" fill="none" xmlns="http://www.w3.org/2000/svg">
<path id="Vector" d="M0.219625 5.96053L5.46963 0.710534C5.61108 0.573916 5.80053 0.49832 5.99718 0.500028C6.19383 0.501737 6.38194 0.580614 6.52099 0.71967C6.66005 0.858726 6.73892 1.04684 6.74063 1.24348C6.74234 1.44013 6.66675 1.62958 6.53013 1.77103L2.56038 5.74078H15.7499C15.9488 5.74078 16.1396 5.8198 16.2802 5.96045C16.4209 6.10111 16.4999 6.29187 16.4999 6.49078C16.4999 6.6897 16.4209 6.88046 16.2802 7.02111C16.1396 7.16177 15.9488 7.24078 15.7499 7.24078H2.56038L6.53013 11.2105C6.60176 11.2797 6.6589 11.3625 6.6982 11.454C6.73751 11.5455 6.7582 11.6439 6.75907 11.7435C6.75993 11.8431 6.74095 11.9418 6.70324 12.034C6.66553 12.1262 6.60984 12.2099 6.53942 12.2803C6.469 12.3507 6.38527 12.4064 6.29309 12.4442C6.20092 12.4819 6.10216 12.5008 6.00258 12.5C5.90299 12.4991 5.80458 12.4784 5.71307 12.4391C5.62157 12.3998 5.53881 12.3427 5.46963 12.271L0.219625 7.02103C0.0790234 6.88039 3.62396e-05 6.68966 3.62396e-05 6.49078C3.62396e-05 6.29191 0.0790234 6.10118 0.219625 5.96053Z" fill="white"/>
</svg>
