<svg width="124" height="124" viewBox="0 0 124 124" fill="none" xmlns="http://www.w3.org/2000/svg">
<g clip-path="url(#clip0_4696_7173)">
<path d="M62 124C96.3585 124 124 96.3585 124 62C124 27.6415 96.3585 0 62 0C27.6415 0 0 27.6415 0 62C0 96.3585 27.6415 124 62 124Z" fill="#2775CA"/>
<path d="M79.0501 71.8164C79.0501 62.7749 73.6251 59.6749 62.7751 58.3834C55.0251 57.3499 53.4751 55.2834 53.4751 51.6664C53.4751 48.0493 56.0586 45.7249 61.2251 45.7249C65.8751 45.7249 68.4586 47.2749 69.7501 51.1499C70.0086 51.9249 70.7836 52.4414 71.5586 52.4414H75.6915C76.7251 52.4414 77.5001 51.6664 77.5001 50.6334V50.3749C76.4665 44.6914 71.8165 40.2999 65.8751 39.7834V33.5834C65.8751 32.5499 65.1001 31.7749 63.8086 31.5164H59.9336C58.9001 31.5164 58.1251 32.2914 57.8665 33.5834V39.5249C50.1165 40.5584 45.2086 45.7249 45.2086 52.1834C45.2086 60.7084 50.3751 64.0664 61.2251 65.3584C68.4586 66.6499 70.7836 68.1999 70.7836 72.3334C70.7836 76.467 67.1665 79.3084 62.2586 79.3084C55.5415 79.3084 53.2165 76.4664 52.4415 72.5914C52.1836 71.5584 51.4086 71.0414 50.6336 71.0414H46.2415C45.2086 71.0414 44.4336 71.8164 44.4336 72.8499V73.1084C45.4665 79.5664 49.6001 84.2164 58.1251 85.5084V91.7084C58.1251 92.7414 58.9001 93.5164 60.1915 93.7749H64.0665C65.1001 93.7749 65.8751 92.9999 66.1336 91.7084V85.5084C73.8836 84.2164 79.0501 78.7914 79.0501 71.8164Z" fill="white"/>
<path d="M48.8252 98.9414C28.6752 91.7085 18.3416 69.2335 25.8337 49.3414C29.7087 38.4914 38.2337 30.225 48.8252 26.35C49.8587 25.8335 50.3752 25.0585 50.3752 23.7664V20.15C50.3752 19.1164 49.8587 18.3414 48.8252 18.0835C48.5666 18.0835 48.0502 18.0835 47.7916 18.3414C23.2502 26.0914 9.81661 52.1835 17.5666 76.725C22.2166 91.1914 33.3252 102.3 47.7916 106.95C48.8252 107.466 49.8587 106.95 50.1166 105.916C50.3752 105.658 50.3752 105.4 50.3752 104.883V101.266C50.3752 100.491 49.6002 99.4585 48.8252 98.9414ZM76.2087 18.3414C75.1752 17.825 74.1416 18.3414 73.8837 19.375C73.6252 19.6335 73.6252 19.8914 73.6252 20.4085V24.025C73.6252 25.0585 74.4002 26.0914 75.1752 26.6085C95.3251 33.8414 105.659 56.3164 98.1666 76.2085C94.2916 87.0585 85.7666 95.325 75.1752 99.2C74.1416 99.7164 73.6252 100.491 73.6252 101.783V105.4C73.6252 106.433 74.1416 107.208 75.1752 107.466C75.4337 107.466 75.9502 107.466 76.2087 107.208C100.75 99.4585 114.184 73.3664 106.434 48.825C101.784 34.1 90.4166 22.9914 76.2087 18.3414Z" fill="white"/>
</g>
<defs>
<clipPath id="clip0_4696_7173">
<rect width="124" height="124" fill="white"/>
</clipPath>
</defs>
</svg>
