<svg width="18" height="18" viewBox="0 0 18 18" fill="none" xmlns="http://www.w3.org/2000/svg">
<mask id="mask0_1550_3788" style="mask-type:luminance" maskUnits="userSpaceOnUse" x="0" y="0" width="18" height="18">
<path d="M0 0H18V18H0V0Z" fill="white"/>
</mask>
<g mask="url(#mask0_1550_3788)">
<path fill-rule="evenodd" clip-rule="evenodd" d="M13.7847 15.4099L10.5719 12.8228C10.3685 12.6591 10.076 12.6688 9.88395 12.8456L7.5948 14.9533C7.59479 14.9533 7.59479 14.9533 7.59478 14.9533C7.38649 15.1451 7.22987 15.1514 7.15276 15.1321C7.07567 15.1128 6.94046 15.0335 6.847 14.7662L6.84699 14.7662L5.04773 9.62093C4.99119 9.45927 4.85967 9.33512 4.69501 9.28801L1.29166 8.31417L16.523 2.49988C16.6617 2.44695 16.7602 2.43713 16.8199 2.44133C16.8762 2.44529 16.8949 2.46063 16.8986 2.46374C16.9023 2.46685 16.9205 2.48285 16.9336 2.53764C16.9475 2.5959 16.954 2.69463 16.9245 2.84014L14.4281 15.167C14.3705 15.4512 14.2512 15.5291 14.2014 15.5475C14.1519 15.5659 14.0119 15.5848 13.7847 15.4099ZM15.4618 15.3763L14.9449 15.2716L15.4618 15.3763L17.9582 3.04948C18.0611 2.54148 17.9841 2.00116 17.5805 1.65912C17.1769 1.31708 16.6312 1.32971 16.147 1.51451L16.1469 1.51452L0.910738 7.33066C0.910734 7.33066 0.91073 7.33067 0.910726 7.33067C0.682398 7.41782 0.471714 7.53052 0.309924 7.67886C0.148129 7.8272 -0.00808687 8.05502 0.00032507 8.35101C0.00873651 8.64698 0.17762 8.86556 0.347542 9.00448C0.517472 9.1434 0.734194 9.24399 0.967087 9.31808C0.971996 9.31964 0.976928 9.32113 0.981882 9.32255L4.14231 10.2269L5.85141 15.1143C5.85141 15.1143 5.85142 15.1143 5.85142 15.1143C6.03098 15.6279 6.39291 16.0292 6.89682 16.1552C7.40073 16.2813 7.90898 16.0977 8.30916 15.7292L8.30917 15.7292L10.2642 13.9292L13.1273 16.2346C13.1298 16.2367 13.1323 16.2387 13.1348 16.2406C13.5593 16.5698 14.0794 16.718 14.5687 16.5362C15.0579 16.3545 15.3552 15.9027 15.4618 15.3763Z" fill="black"/>
<path fill-rule="evenodd" clip-rule="evenodd" d="M6.71746 16.0617C7.00021 16.1315 7.28602 15.9588 7.35583 15.6761L8.36309 11.5965L14.149 5.44859C14.3248 5.26182 14.3407 4.97566 14.1867 4.77056C14.0327 4.56545 13.7535 4.50089 13.5251 4.61757L4.35602 9.3019C4.09666 9.4344 3.99383 9.75206 4.12633 10.0114C4.25883 10.2708 4.57649 10.3736 4.83585 10.2411L11.2969 6.9403L7.50025 10.9744C7.43811 11.0405 7.39404 11.1214 7.37231 11.2094L6.33189 15.4233C6.26208 15.706 6.4347 15.9918 6.71746 16.0617Z" fill="black"/>
<path fill-rule="evenodd" clip-rule="evenodd" d="M13.8408 16.1325C14.0235 15.9056 13.9877 15.5737 13.7608 15.391L8.24274 10.9477C8.0159 10.765 7.68393 10.8009 7.50127 11.0277C7.31861 11.2546 7.35443 11.5865 7.58127 11.7692L13.0994 16.2125C13.3262 16.3951 13.6582 16.3593 13.8408 16.1325Z" fill="black"/>
</g>
</svg>
